<svg xmlns="http://www.w3.org/2000/svg" viewBox="4 0 20 20"><defs><linearGradient id="br_ghost-a" x1="71.676%" x2="26.129%" y1="67.688%" y2="43.754%"><stop offset="0%" stop-color="#FFF"/><stop offset="21.68%" stop-color="#FBFBFB"/><stop offset="41.07%" stop-color="#F1F1F1"/><stop offset="59.6%" stop-color="#DEDEDE"/><stop offset="77.58%" stop-color="#C5C5C5"/><stop offset="95.01%" stop-color="#A4A4A4"/><stop offset="100%" stop-color="#999"/></linearGradient></defs><g fill="none" fill-rule="evenodd"><path d="M9.32 9.536a1.51 1.51 0 0 0 .589-.25 1.08 1.08 0 0 0 .367-.488c.086-.207.124-.47.124-.783 0-.307-.032-.563-.097-.77a1.074 1.074 0 0 0-.308-.494 1.253 1.253 0 0 0-.523-.27 2.972 2.972 0 0 0-.756-.081H7.2v3.199h1.35a3.28 3.28 0 0 0 .77-.063zm1.478 2.068a1.484 1.484 0 0 0-.593-.298 3.548 3.548 0 0 0-.934-.106H7.2v3.2h2.09c.39 0 .71-.05.958-.15.247-.099.445-.229.581-.384.142-.162.235-.336.29-.541.056-.199.081-.404.081-.609 0-.236-.03-.447-.093-.634a.962.962 0 0 0-.309-.478zm4.691-2.302c-.34-.332-.868-.502-1.58-.502H12.8v4h1.109c.373 0 .695-.052.96-.163.263-.111.482-.261.648-.45.167-.19.293-.418.368-.672.075-.255.115-.536.115-.83 0-.586-.172-1.05-.511-1.383z"/><path fill="url(#br_ghost-a)" fill-rule="nonzero" d="M13.428 10.742a2.242 2.242 0 0 0-.428-.538 2.579 2.579 0 0 0-.527-.371 4.01 4.01 0 0 0 1.043-.606 3.79 3.79 0 0 0 .767-.841c.205-.316.364-.656.47-1.02.105-.372.157-.761.157-1.175a4.24 4.24 0 0 0-.263-1.51 2.98 2.98 0 0 0-.856-1.205c-.392-.34-.896-.606-1.511-.792-.621-.191-1.365-.284-2.244-.284h-.85L7.2 15.194h1.7v-4.73h.714c.217 0 .387.036.504.105a.852.852 0 0 1 .31.352l2.016 3.716c.205.377.545.563 1.013.563H16l-2.572-4.458zm-1.383-3.544a1.645 1.645 0 0 1-.375.637c-.17.18-.392.322-.662.427-.27.105-.597.155-.978.155H8.9v-3.79h1.13c.726 0 1.265.16 1.611.475.346.316.521.755.521 1.317 0 .272-.04.532-.117.78z" transform="translate(4 4)"/><path fill="#FFF" fill-rule="nonzero" d="M11.189 10.125L12 4.897c-.364-.278-.823-.495-1.381-.65C10.03 4.087 9.314 4 8.473 4H4v12.8h4.855c.47 0 .905-.043 1.311-.124l1.011-6.47.012-.081zM6.82 6.22h1.652c.318 0 .594.025.823.08.23.056.423.143.57.266.153.124.259.285.335.49.07.203.106.457.106.76 0 .31-.047.57-.135.773a1.125 1.125 0 0 1-.4.483 1.74 1.74 0 0 1-.64.247c-.253.05-.53.068-.841.068H6.82V6.221zm3.733 7.263a1.37 1.37 0 0 1-.276.538 1.416 1.416 0 0 1-.553.384c-.235.099-.54.148-.91.148H6.826v-3.186h1.97c.358 0 .652.037.887.105s.423.167.564.297c.141.13.241.285.3.477.059.185.088.396.088.63a2.96 2.96 0 0 1-.082.607z"/></g></svg>