<?xml version="1.0" encoding="UTF-8" standalone="no"?>
<svg
   xmlns:dc="http://purl.org/dc/elements/1.1/"
   xmlns:cc="http://creativecommons.org/ns#"
   xmlns:rdf="http://www.w3.org/1999/02/22-rdf-syntax-ns#"
   xmlns:svg="http://www.w3.org/2000/svg"
   xmlns="http://www.w3.org/2000/svg"
   xmlns:sodipodi="http://sodipodi.sourceforge.net/DTD/sodipodi-0.dtd"
   xmlns:inkscape="http://www.inkscape.org/namespaces/inkscape"
   id="Layer_1"
   viewBox="0 0 300 109.2"
   width="2500"
   height="910"
   version="1.1"
   sodipodi:docname="unity-technologies-logo.svg"
   inkscape:version="0.92.4 (5da689c313, 2019-01-14)">
  <metadata
     id="metadata11">
    <rdf:RDF>
      <cc:Work
         rdf:about="">
        <dc:format>image/svg+xml</dc:format>
        <dc:type
           rdf:resource="http://purl.org/dc/dcmitype/StillImage" />
        <dc:title></dc:title>
      </cc:Work>
    </rdf:RDF>
  </metadata>
  <defs
     id="defs9" />
  <sodipodi:namedview
     pagecolor="#ffffff"
     bordercolor="#666666"
     borderopacity="1"
     objecttolerance="10"
     gridtolerance="10"
     guidetolerance="10"
     inkscape:pageopacity="0"
     inkscape:pageshadow="2"
     inkscape:window-width="1920"
     inkscape:window-height="1017"
     id="namedview7"
     showgrid="false"
     inkscape:zoom="0.3959798"
     inkscape:cx="1516.5097"
     inkscape:cy="533.11213"
     inkscape:window-x="-8"
     inkscape:window-y="-8"
     inkscape:window-maximized="1"
     inkscape:current-layer="Layer_1" />
  <style
     id="style2">.st0{fill:#222c37}</style>
  <path
     class="st0"
     d="M1263.9 2944.2h-42.5v-98.3c0-25.3-10.4-45.4-40.9-45.4-30.2-.3-38.9 20.4-38.9 46.7v97H1099v-107.8c0-31.1 11-75.6 69.5-75.9 32.1-.3 48 15.3 55.5 29.2V2766h39.9v178.2M1280.8 2766h42.5v98.3c0 25 10.4 45.1 40.6 45.4 29.9 0 38.6-20.4 38.6-47.1V2766h42.5v107.4c0 31.5-11 75.9-69.1 76.3-31.8.3-47.7-15.2-55.5-29.2.3 8.4.3 15.9.3 23.7h-39.9V2766M1461.3 2766h42.5v178.2h-42.5V2766zm0 202.2h42.5v38h-42.5v-38M1548.3 2766h42.5v145.4h30.5l-12.6 32.8h-17.9v62h-42.5v-62h-29.5v-32.8h29.5V2766M1662.4 2703.7h45.4l93.8 240.5h-45.4l-42.8-118.5-43.5 118.5h-45.4l67.2-171.4-29.3-69.1M865.9 2856.7l77.6 134 37.5-134-37.5-134-77.6 134zm-37.8-21.7l77.6-134-135.2 34.6-97.7 99.4h155.3zm77.6 177.5l-77.6-134H672.8l97.7 99.4 135.2 34.6zm110.8-110.2l-47.4 176.1-176.7-47.2-26.2-46-53.1.4-129.4-128.9 129.4-128.9 53.1.4 26.2-46 176.7-47.2 47.4 176.1-26.9 45.6 26.9 45.6"
     transform="matrix(.24634 0 0 -.24634 -143.809 758.345)"
     id="path4" />
  <path
     style="fill:#f2f2f2;stroke-width:7.14285707"
     d="M 596.42857,855.923 432.14286,811.39386 404.48509,763.91121 376.82734,716.42857 h -54.55751 -54.5575 L 137.42665,585.99996 7.1409771,455.57135 137.56959,325.28567 267.9982,195 h 54.41456 54.41458 L 404.48509,147.14776 432.14286,99.295514 600,54.371957 C 692.32143,29.664001 772.91621,9.4117957 779.09957,9.3670571 c 8.66,-0.062643 22.12357,40.4317809 58.61272,176.2899529 l 47.37028,176.37129 -25.87464,42.59424 c -14.231,23.42682 -25.87457,46.41811 -25.87457,51.09175 0,4.67363 11.58371,27.5664 25.74164,50.87282 l 25.74164,42.37531 -47.33307,176.59022 C 794.68214,885.236 788.74136,902.06193 775.43236,901.2975 767.33743,900.83257 686.78571,880.41407 596.42857,855.923 Z m 50.44959,-112.70871 c -10.01949,-16.69643 -46.36239,-79.3428 -80.762,-139.21415 L 503.57143,495.14313 340.25376,495.07156 176.93609,495 271.61891,595.20144 c 52.07556,55.11079 98.24708,102.5215 102.60339,105.35714 11.43216,7.44151 254.80869,71.64678 274.39684,72.38878 l 16.47628,0.62407 z M 781.16671,590.05525 818.739,454.89532 781.05336,320.44106 C 745.35064,193.06124 738.9155,174.2894 733.35829,181.30952 724.3635,192.67215 578.57143,450.92523 578.57143,455.49583 c 0,5.81891 139.24928,249.63498 152.18328,266.46253 3.84743,5.00564 8.31029,7.78621 9.91743,6.179 1.60722,-1.60722 19.82979,-63.74415 40.49457,-138.08211 z M 584.19329,274.44262 c 44.35439,-76.12798 79.68913,-139.36973 78.52165,-140.53721 -1.16748,-1.16748 -65.62391,14.25016 -143.2365,34.26143 l -141.11381,36.38411 -96.32517,98.47144 c -52.97885,54.1593 -96.32517,101.89326 -96.32517,106.07547 0,5.20654 50.10522,6.99791 158.91732,5.68165 l 158.91733,-1.92237 z"
     id="path3788"
     inkscape:connector-curvature="0"
     transform="scale(0.12)" />
  <path
     style="fill:#f2f2f2;stroke-width:2.52538133"
     d="m 1173.0518,649.70293 c -55.7734,-8.71049 -92.5921,-41.92264 -107.9311,-97.3589 -5.2712,-19.05034 -5.5631,-25.71147 -6.49,-148.11056 L 1057.66,276.07036 h 42.9561 42.9561 l 0.8355,116.79889 c 0.8298,115.99923 0.8764,116.90122 6.8136,131.74614 7.6112,19.03054 22.4685,35.2342 37.6941,41.1097 18.1166,6.99121 58.1994,6.28062 74.9308,-1.32838 15.1308,-6.88108 27.6718,-18.38056 34.5019,-31.63654 10.8071,-20.97485 12.1275,-37.24318 12.1738,-149.99245 l 0.044,-106.69736 h 41.6688 41.6687 v 181.82746 181.82746 h -39.1434 -39.1434 l -0.1323,-24.62247 c -0.1291,-23.96168 -0.2472,-24.45304 -4.4119,-18.30902 -8.5884,12.67035 -27.1165,30.88648 -37.7593,37.12362 -24.3331,14.26014 -67.0075,20.97897 -100.2611,15.78552 z"
     id="path3790"
     inkscape:connector-curvature="0"
     transform="scale(0.12)" />
  <path
     style="fill:#f2f2f2;stroke-width:2.52538133"
     d="M 1431.7841,457.89782 V 276.07036 h 40.787 40.7869 l -1.5759,23.99112 c -0.982,14.94973 -0.6497,23.99113 0.8818,23.99113 1.3518,0 2.4578,-1.09485 2.4578,-2.43299 0,-1.33814 6.7358,-9.63366 14.9686,-18.43448 24.1816,-25.85023 53.2551,-37.25222 94.7847,-37.17245 72.7167,0.13967 117.1798,33.07246 135.8335,100.60894 5.0246,18.19175 5.3898,26.60721 6.344,146.20323 l 1.0125,126.90042 h -43.1341 -43.1341 l -0.044,-107.96006 c -0.034,-84.68853 -0.8355,-111.69632 -3.7162,-125.29317 -8.6582,-40.8661 -32.203,-59.92728 -74.5268,-60.33465 -38.5683,-0.37123 -63.2228,13.69139 -77.2446,44.05944 l -7.3557,15.93066 -0.7488,116.79889 -0.7488,116.79889 h -42.814 -42.814 z"
     id="path3792"
     inkscape:connector-curvature="0"
     transform="scale(0.12)" />
  <path
     style="fill:#f2f2f2;stroke-width:2.52538133"
     d="M 1803.0151,457.89782 V 276.07036 h 41.6688 41.6688 v 181.82746 181.82746 h -41.6688 -41.6688 z"
     id="path3794"
     inkscape:connector-curvature="0"
     transform="scale(0.12)" />
  <path
     style="fill:#f2f2f2;stroke-width:2.52538133"
     d="m 1803.0151,187.68201 v -37.88072 h 41.6688 41.6688 v 37.88072 37.88072 h -41.6688 -41.6688 z"
     id="path3796"
     inkscape:connector-curvature="0"
     transform="scale(0.12)" />
  <path
     style="fill:#f2f2f2;stroke-width:2.52538133"
     d="m 1981.706,491.35912 -0.6515,-148.36615 -29.6732,-0.71149 -29.6732,-0.71149 v -32.74981 -32.74982 h 30.3045 30.3046 v -63.13453 -63.13454 h 41.6688 41.6688 v 63.13454 63.13453 h 18.5556 18.5557 l 12.7332,32.82996 12.7333,32.82996 h -31.2889 -31.2889 v 148.9975 148.9975 h -41.6486 -41.6486 z"
     id="path3798"
     inkscape:connector-curvature="0"
     transform="scale(0.12)" />
  <path
     style="fill:#f2f2f2;stroke-width:2.52538133"
     d="m 2217.1777,766.91154 c 0,-0.88452 13.1588,-32.64025 29.2418,-70.56835 l 29.2418,-68.96013 -68.3852,-174.35133 c -37.6119,-95.89324 -68.3853,-174.9386 -68.3853,-175.65635 0,-0.71776 20.1983,-1.30502 44.8851,-1.30502 h 44.885 l 44.0004,120.11379 c 24.2002,66.06258 44.794,120.60426 45.764,121.20375 1.8492,1.14284 4.3809,-5.58305 56.851,-151.03079 l 32.5677,-90.27801 45.0957,-0.004 c 41.8695,-0.004 44.9823,0.3118 43.5107,4.41505 -0.8717,2.43068 -43.8932,113.21018 -95.6033,246.17667 l -94.0184,241.75724 -44.8255,0.048 c -24.654,0.0264 -44.8255,-0.67564 -44.8255,-1.56013 z"
     id="path3800"
     inkscape:connector-curvature="0"
     transform="scale(0.12)" />
</svg>
